<svg width="167" height="47" viewBox="0 0 167 47" fill="none" xmlns="http://www.w3.org/2000/svg">
<path fill-rule="evenodd" clip-rule="evenodd" d="M0.246846 20.0547C0.246256 11.944 0.245584 2.70845 10.2482 0.904374C13.1553 0.380033 17.8379 0.0730382 20.6953 0.890326C22.3694 1.36916 23.6834 3.51326 21.8704 4.77201C19.8084 6.20366 17.1608 6.00891 14.5586 5.81749C10.4955 5.51862 6.54323 5.22789 5.10403 11.1491C4.64966 13.0185 4.70487 15.0404 4.75856 17.0068C4.77581 17.6383 4.7929 18.2642 4.7929 18.8774C4.7929 20.1163 4.70436 21.5418 4.60994 23.062C4.22189 29.3098 3.73442 37.1581 8.8847 40.2397C10.9766 41.4912 13.393 41.301 15.806 41.1111C17.6223 40.9681 19.4366 40.8253 21.1092 41.2976C23.029 41.8395 23.3886 44.4821 21.5094 45.3617C20.1545 45.9959 18.2165 45.8771 16.4984 45.7718C15.891 45.7346 15.3112 45.6991 14.7942 45.6991C14.4548 45.6991 14.1144 45.7024 13.7736 45.7057C11.8208 45.7246 9.85298 45.7437 7.97513 45.1426C-0.60351 42.3967 -0.192214 32.2829 0.132718 24.2927C0.191185 22.855 0.246855 21.4861 0.246855 20.2412C0.246855 20.1791 0.24685 20.117 0.246846 20.0547ZM28.8881 5.10874C28.8968 3.61736 28.9088 1.54608 30.725 1.13449C33.9101 0.412672 33.6241 5.86645 33.4778 8.65566C33.4534 9.11941 33.433 9.5095 33.433 9.7853V32.0609C33.433 32.5759 33.3787 33.2536 33.3184 34.0064C33.1385 36.2526 32.905 39.1675 33.9002 40.4243C34.5928 41.2988 36.084 41.2302 37.2552 41.1763C37.5165 41.1642 37.762 41.1529 37.979 41.153C39.036 41.1534 40.1914 41.0816 41.3817 41.0075C44.0953 40.8387 46.9907 40.6587 49.3173 41.2976C51.2803 41.8367 51.679 44.4798 49.7315 45.3617C48.1317 46.0858 45.8026 45.9325 43.7421 45.797C42.9797 45.7468 42.2541 45.6991 41.6159 45.6991C40.9496 45.6991 40.0344 45.7718 38.999 45.8541C35.7129 46.1153 31.2151 46.4727 29.6158 44.9071C28.507 43.8215 28.68 41.3434 28.8133 39.4349C28.8518 38.8836 28.8869 38.3798 28.8869 37.9708V17.9682C28.8869 16.5599 28.8838 15.1516 28.8806 13.7431C28.8742 10.9084 28.8678 8.07355 28.8873 5.23925C28.8876 5.19629 28.8878 5.15277 28.8881 5.10874ZM52.5224 23.6703C52.4858 13.8717 52.444 2.69338 64.8007 0.894554C70.0109 0.136046 75.6967 3.35187 78.0588 7.96688C79.6246 11.0253 79.5103 14.6772 79.4019 18.1425C79.3748 19.0093 79.348 19.8645 79.348 20.6958C79.348 21.6368 79.3629 22.6106 79.378 23.6039C79.5195 32.8936 79.6869 43.8801 67.9829 45.5627C62.3727 46.3691 56.6796 43.4433 54.0734 38.4254C52.3559 35.1188 52.4303 31.1152 52.4997 27.3777C52.5131 26.6534 52.5264 25.9391 52.5264 25.2419C52.5264 24.7231 52.5244 24.1987 52.5224 23.6703ZM85.437 18.8756C79.879 11.8024 85.317 2.13326 93.4408 0.893145C96.9635 0.355439 102.049 1.08694 105.254 2.66069C106.707 3.37492 109.012 5.51615 106.88 6.97453C105.585 7.86032 103.78 7.23093 102.268 6.70353C101.878 6.5673 101.507 6.43787 101.169 6.34313C95.9538 4.88007 87.765 4.96931 88.0123 12.5129C88.1119 15.5382 90.5013 17.4417 92.9862 18.7581C94.2883 19.4479 95.7186 20.0921 97.1825 20.7515C101.279 22.5966 105.638 24.5603 108.189 27.9713C112.948 34.3349 108.778 44.0484 101.169 45.4863C96.4966 46.3696 90.62 44.9549 86.6222 42.4855C85.192 41.6022 81.7488 38.7882 84.4932 37.1625C85.9516 36.2987 88.0585 37.5008 89.6535 38.411C90.0429 38.6331 90.4017 38.8379 90.7131 38.9909C95.727 41.454 104.085 42.7723 105.456 35.2432C105.98 32.3692 103.918 29.9822 101.623 28.5827C99.9291 27.5496 97.9783 26.6553 95.9917 25.7447C92.0323 23.9296 87.9308 22.0495 85.437 18.8756ZM113.747 12.5672C113.448 8.56999 112.997 2.54141 115.329 1.16045C118.459 -0.692517 126.676 0.118003 131.358 0.579869C131.968 0.640049 132.519 0.69431 132.99 0.735989C134.763 0.892918 137.233 2.44266 135.636 4.51034C134.4 6.11032 130.951 5.69621 127.465 5.27759C123.146 4.75901 118.77 4.2335 118.471 7.52105C118.456 7.68387 118.437 7.87772 118.416 8.09752C118.159 10.7366 117.539 17.1158 119.173 18.4101C119.991 19.0582 122.083 18.9599 124.316 18.8551C127.984 18.6829 132.033 18.4928 131.456 21.5576C130.979 24.0924 127.915 23.7434 124.881 23.398C122.203 23.093 119.548 22.7907 118.718 24.4772C117.656 26.6356 117.972 30.4489 118.239 33.6662C118.344 34.9373 118.442 36.1153 118.444 37.0616C118.444 37.2392 118.439 37.4315 118.433 37.6325C118.398 38.8221 118.354 40.3161 119.498 40.8789C121.738 41.9814 125.147 41.6725 128.343 41.3829C130.207 41.2139 131.999 41.0515 133.444 41.1798C135.237 41.3389 137.179 43.1915 135.444 44.9071C134.047 46.2884 130.477 46.0178 127.814 45.8158C127.002 45.7542 126.274 45.6991 125.718 45.6991C125.102 45.6991 124.269 45.7645 123.329 45.8383C120.306 46.0757 116.183 46.3995 114.69 44.9071C113.466 43.6828 113.663 40.8774 113.814 38.7234C113.858 38.0957 113.898 37.5234 113.898 37.0616V15.2406C113.898 14.5884 113.828 13.6527 113.747 12.5672ZM140.166 8.88523C139.96 6.07816 139.656 1.95333 141.696 1.03066C143.151 0.372616 145.214 0.500059 147.049 0.613476C147.709 0.654249 148.34 0.69321 148.903 0.69321C157.921 0.69321 168.203 4.63277 166.885 15.6952C166.546 18.5483 165.767 21.2348 163.819 23.4164C163.484 23.7913 162.905 24.2081 162.282 24.6564C161.049 25.5436 159.644 26.5548 159.617 27.6117C159.554 30.1441 161.685 33.6174 163.525 36.6155C164.352 37.9641 165.121 39.2165 165.604 40.2438C166.274 41.669 167.449 44.5812 165.203 45.3122C163.179 45.9708 162.051 43.6407 161.291 42.0704C161.212 41.9064 161.136 41.7507 161.065 41.6076C160.541 40.5662 160.014 39.2718 159.453 37.8947C158.058 34.4687 156.455 30.5302 154.18 28.6984C152.761 27.555 146.052 27.1474 144.824 28.6984C144.183 29.5079 144.259 30.9202 144.323 32.0826C144.34 32.4035 144.356 32.7053 144.356 32.9701V39.3346C144.356 39.4662 144.359 39.629 144.362 39.8158C144.397 41.924 144.484 47.0993 141.302 45.2231C139.651 44.249 139.943 40.8375 140.153 38.3854C140.212 37.6894 140.265 37.0707 140.265 36.607V10.6945C140.265 10.2257 140.219 9.59793 140.166 8.88523ZM57.9455 10.6946C59.2516 7.93637 61.8024 5.98471 64.801 5.45369C68.4701 4.80392 72.4792 6.87524 74.0872 10.24C75.0692 12.2945 74.9607 14.8914 74.8605 17.2874C74.831 17.9927 74.8023 18.6806 74.8023 19.3321C74.8023 20.5192 74.8847 21.8863 74.9726 23.3454C75.3972 30.3907 75.9511 39.5807 67.9832 41.0035C56.7181 43.015 56.9146 31.0407 57.0466 23.0035C57.06 22.1874 57.0727 21.412 57.0727 20.6959C57.0727 20.0052 57.0476 19.2894 57.0221 18.5616C56.9284 15.8885 56.829 13.0522 57.9455 10.6946ZM144.262 12.2248C144.087 9.94825 143.837 6.69582 145.086 5.70658C146.051 4.94164 147.949 5.07252 149.465 5.17712C149.933 5.20941 150.364 5.2392 150.721 5.23934C158.97 5.24252 167.704 14.1659 159.222 21.2462C156.993 23.1068 147.015 25.4614 144.824 22.6946C143.791 21.391 144.042 18.3032 144.234 15.9339C144.299 15.1343 144.357 14.4166 144.357 13.8768C144.357 13.46 144.312 12.8832 144.262 12.2248Z" fill="#0D1015"/>
</svg>
