<svg width="124" height="82" viewBox="0 0 124 82" fill="none" xmlns="http://www.w3.org/2000/svg">
<path fill-rule="evenodd" clip-rule="evenodd" d="M124 30.9057C120.439 36.1645 114.416 39.6208 107.586 39.6208C96.6452 39.6208 87.7758 30.7514 87.7758 19.8104C87.7758 8.86941 96.6452 0 107.586 0C114.141 0 119.953 3.18377 123.559 8.08933L115.687 14.1267C113.984 11.4853 111.128 9.75278 107.891 9.75278C102.673 9.75278 98.4432 14.2557 98.4432 19.8104C98.4432 25.365 102.673 29.8679 107.891 29.8679C111.232 29.8679 114.167 28.0226 115.847 25.2373L124 30.9057ZM81.985 19.9624C81.985 30.8193 72.7744 39.6204 61.4127 39.6204C50.0509 39.6204 40.8403 30.8193 40.8403 19.9624C40.8403 9.10563 50.0509 0.304443 61.4127 0.304443C72.7744 0.304443 81.985 9.10563 81.985 19.9624ZM71.0134 19.9622C71.0134 25.601 66.7151 30.1722 61.413 30.1722C56.1108 30.1722 51.8125 25.601 51.8125 19.9622C51.8125 14.3234 56.1108 9.75224 61.413 9.75224C66.7151 9.75224 71.0134 14.3234 71.0134 19.9622ZM9.44803 0.914317H0V37.7958V38.7064H9.44803H10.3624L19.0683 25.6999L27.4297 38.7065H38.7064L24.9915 17.3723H24.6425L35.6587 0.914317H24.6868L9.44803 23.6807V0.914317ZM38.4022 44.1922H38.4014H28.423H28.3447V44.3074L19.2007 57.7545L10.0576 44.3086V44.1922H9.97839H0V81.9843H10.0576V59.3584L19.2005 73.1454V73.1458L19.2007 73.1456L19.2008 73.1458V73.1454L28.3447 59.3571V81.9843H38.4022V44.1922ZM61.4127 81.9844C72.7744 81.9844 81.985 73.1832 81.985 62.3264C81.985 51.4695 72.7744 42.6684 61.4127 42.6684C50.0509 42.6684 40.8403 51.4695 40.8403 62.3264C40.8403 73.1832 50.0509 81.9844 61.4127 81.9844ZM61.413 72.5364C66.7151 72.5364 71.0134 67.9652 71.0134 62.3264C71.0134 56.6876 66.7151 52.1164 61.413 52.1164C56.1108 52.1164 51.8125 56.6876 51.8125 62.3264C51.8125 67.9652 56.1108 72.5364 61.413 72.5364ZM107.586 81.9845C114.416 81.9845 120.439 78.5282 124 73.2694L115.847 67.601C114.167 70.3862 111.232 72.2316 107.891 72.2316C102.673 72.2316 98.4432 67.7286 98.4432 62.174C98.4432 56.6193 102.673 52.1164 107.891 52.1164C111.128 52.1164 113.985 53.849 115.687 56.4904L123.559 50.453C119.953 45.5475 114.141 42.3637 107.586 42.3637C96.6452 42.3637 87.7758 51.2331 87.7758 62.1741C87.7758 73.1151 96.6452 81.9845 107.586 81.9845Z" fill="#0D1015"/>
</svg>
