<svg width="74" height="40" viewBox="0 0 74 40" fill="none" xmlns="http://www.w3.org/2000/svg">
<path d="M12.109 17.2797C11.0502 16.1398 9.4514 15.4957 7.63378 15.4957C3.30678 15.4957 0.509766 18.7656 0.509766 23.8232C0.509766 29.0008 3.29267 32.3466 7.60378 32.3466C9.43199 32.3466 11.0202 31.7254 12.079 30.5978C12.0508 31.8789 12.0102 33.6595 11.9255 34.1854C11.5725 36.1583 10.1167 37.1589 7.58084 37.1589C5.63969 37.1589 4.25618 36.7195 2.9662 35.6924L2.66268 35.4524L1.07446 37.5489L1.28975 37.7836C2.57444 39.1653 4.54382 39.7829 7.67437 39.7829C10.0514 39.7829 12.1514 39.0577 13.2878 37.8418C14.959 36.1336 14.959 33.9136 14.959 29.8866V15.8433H12.109V17.2797ZM7.7626 29.6325C7.27555 29.6325 5.78969 29.6325 4.72559 28.3531C3.90148 27.3772 3.44972 25.759 3.44972 23.7932C3.44972 21.4779 4.13971 20.1774 4.72029 19.4944C5.48087 18.6244 6.60673 18.1444 7.89672 18.1444C11.5796 18.1444 12.0508 21.3209 12.0508 24.0685C12.0208 25.7326 11.9502 29.6325 7.76966 29.6325M23.8935 27.1814L19.9424 15.9951H16.4766L22.3512 31.8419L22.4077 31.9936H25.1853L31.7922 15.9951H28.3511L23.8935 27.1814ZM33.0293 40H73.0381V0H33.0293V40ZM39.9804 31.9989H36.5092V7.994H39.9839L39.9804 31.9989Z" fill="black"/>
</svg>
