<svg width="170" height="44" viewBox="0 0 170 44" fill="none" xmlns="http://www.w3.org/2000/svg">
<path fill-rule="evenodd" clip-rule="evenodd" d="M107.891 14.5427C103.96 14.5427 100.284 15.5578 97.5482 17.3999L97.031 17.7571L97.1432 17.1305C98.3582 9.9813 101.517 6.6542 107.106 6.6542C110.919 6.6542 113.437 8.05145 114.963 11.0339L122.041 9.00385C119.368 3.11407 114.209 0 107.1 0C92.5511 0 89.498 12.2745 89.498 22.5754C89.498 36.6169 95.4235 43.7473 107.1 43.7473C117.088 43.7473 124.066 37.6131 124.066 28.8286C124.073 20.5516 117.262 14.5427 107.891 14.5427ZM106.901 37.2246C101.816 37.2246 98.1277 33.6908 98.1277 28.8223C98.1277 24.5052 102.184 21.1217 107.368 21.1217C112.427 21.1217 116.552 24.7308 116.552 29.1669C116.558 33.6093 112.228 37.2246 106.901 37.2246ZM162.343 31.0776V0.939453H170V42.807H161.371L141.607 12.6564V42.807H133.949V0.939453H142.579L162.343 31.0776ZM75.3456 1.01562H84.9036L69.5946 21.8742L84.9036 42.7265H75.3456L64.8094 28.378L54.2794 42.7265H44.709L60.0304 21.8742L44.709 1.01562H54.2794L64.8094 15.3641L75.3456 1.01562ZM36.1073 42.807V0.939453H28.431V18.4271H7.67629V0.939453H0V42.807H7.67629V25.2191H28.431V42.807H36.1073Z" fill="#131211"/>
</svg>
