<svg width="270" height="36" viewBox="0 0 270 36" fill="none" xmlns="http://www.w3.org/2000/svg">
<path fill-rule="evenodd" clip-rule="evenodd" d="M165.668 0.249347L149.103 0.340166L149.195 17.8689L149.286 35.3976H167H184.714V26.675V17.9523L176.565 17.864C172.084 17.8149 168.186 17.6897 167.905 17.5866C167.558 17.4598 170.142 14.6878 175.859 9.05298C180.517 4.4638 184.213 0.596256 184.075 0.45962C183.745 0.134802 184.675 0.145438 165.668 0.249347ZM0.399976 17.8656L0.492191 35.3976L9.87988 35.4958C22.0889 35.6234 20.8626 36.1209 20.8626 31.0367V26.864L28.3911 26.7699L35.9195 26.675L36.0117 13.5039L36.1048 0.332803H18.2067H0.308594L0.399976 17.8656ZM43.0998 17.513C43.0475 27.0211 43.1439 34.8961 43.3167 35.1399C43.5617 35.4852 47.3924 35.5596 61.2073 35.4884L78.7864 35.3976V17.9523V0.507074L60.9905 0.417073L43.1954 0.326255L43.0998 17.513ZM85.4259 17.8656L85.5172 35.3976L102.855 35.4884C112.392 35.5383 120.328 35.4467 120.493 35.2847C120.734 35.0466 85.9534 0.332803 85.4732 0.332803C85.3968 0.332803 85.3752 8.22253 85.4259 17.8656ZM109.713 0.520166C109.477 0.753348 126.869 35.1947 127.233 35.2111C127.52 35.2242 144.858 1.2598 144.858 0.682983C144.858 0.318892 110.082 0.156894 109.713 0.520166ZM191.707 17.8623L191.799 35.3976H209.513H227.227V17.9523V0.507074L209.421 0.417073L191.616 0.326255L191.707 17.8623ZM260.443 9.04316L251.856 17.6038L243.259 9.14298C238.53 4.48916 234.463 0.682165 234.221 0.682165C233.876 0.682165 233.78 4.38853 233.78 17.7781C233.78 31.2233 233.875 34.874 234.223 34.8732C234.467 34.8723 237.251 32.3213 240.41 29.2032C243.569 26.0859 247.429 22.2895 248.986 20.7669L251.818 17.999L260.489 26.5768C265.258 31.2944 269.25 35.0654 269.361 34.9566C269.666 34.6563 269.602 0.741074 269.297 0.602801C269.15 0.536528 265.166 4.33453 260.443 9.04316Z" fill="#131211"/>
</svg>
