<svg width="149" height="22" viewBox="0 0 149 22" fill="none" xmlns="http://www.w3.org/2000/svg">
<path fill-rule="evenodd" clip-rule="evenodd" d="M91.1392 1.03661L82.1509 1.08794L82.2009 10.9952L82.2505 20.9024H91.8618H101.473V15.9723V11.0423L97.0519 10.9924C94.6205 10.9646 92.5055 10.8939 92.3527 10.8356C92.1647 10.7639 93.5666 9.1972 96.6688 6.01241C99.1958 3.41861 101.202 1.23268 101.126 1.15546C100.947 0.971871 101.452 0.977883 91.1392 1.03661ZM1.46621 10.9933L1.51624 20.9024L6.60991 20.9579C13.2344 21.03 12.5691 21.3112 12.5691 18.4376V16.0792L16.6539 16.026L20.7388 15.9723L20.7888 8.52806L20.8393 1.08378H11.128H1.41663L1.46621 10.9933ZM24.6348 10.794C24.6064 16.168 24.6586 20.6189 24.7524 20.7567C24.8854 20.9518 26.9639 20.9939 34.4597 20.9537L43.9979 20.9024V11.0423V1.18228L34.342 1.13141L24.6866 1.08008L24.6348 10.794ZM47.6005 10.9933L47.65 20.9024L57.0576 20.9537C62.2319 20.9819 66.5381 20.9301 66.6274 20.8385C66.7585 20.704 47.8867 1.08378 47.6262 1.08378C47.5847 1.08378 47.573 5.54304 47.6005 10.9933ZM60.7787 1.18968C60.6502 1.32147 70.087 20.7877 70.2844 20.7969C70.4404 20.8043 79.8479 1.60772 79.8479 1.2817C79.8479 1.07592 60.9788 0.984357 60.7787 1.18968ZM105.268 10.9915L105.318 20.9024H114.929H124.54V11.0423V1.18228L114.879 1.13141L105.218 1.08008L105.268 10.9915ZM142.563 6.00686L137.904 10.8453L133.239 6.06328C130.673 3.43295 128.466 1.28124 128.335 1.28124C128.148 1.28124 128.096 3.37607 128.096 10.9438C128.096 18.543 128.148 20.6064 128.337 20.6059C128.469 20.6055 129.98 19.1636 131.693 17.4013C133.408 15.6394 135.502 13.4937 136.347 12.6331L137.883 11.0687L142.588 15.9168C145.176 18.5833 147.342 20.7146 147.402 20.6531C147.567 20.4834 147.532 1.31453 147.367 1.23638C147.288 1.19893 145.126 3.34555 142.563 6.00686Z" stroke="black" stroke-width="2"/>
</svg>
