<svg width="1080" height="1080" viewBox="0 0 1080 1080" fill="none" xmlns="http://www.w3.org/2000/svg">
<g clip-path="url(#clip0_35_28)">
<path d="M1038.8 300.94C1042.18 304.41 1044.53 308.58 1045.94 313.24C1046.13 313.86 1046.13 314.69 1047.02 314.61V319.76C1046.15 319.98 1046.04 320.68 1046.02 321.39C1045.96 323.22 1045.98 325.05 1045.87 326.88C1045.8 328 1045.69 329.14 1045.38 330.21C1044.68 332.66 1041.01 337.71 1038.64 339.7C1037.73 341.66 1036.59 343.46 1034.8 344.76C1034.07 347.69 1032.12 350.01 1030.76 352.62C1030.24 353.61 1029.47 354.48 1028.83 355.41C1024.63 361.48 1019.82 367.01 1014.43 372.05C1014.17 372.93 1013.47 373.13 1012.66 373.17C1012.4 373.96 1011.99 374.61 1011.05 374.67C1007.97 378.41 1004.05 381.21 1000.32 384.21C995.95 389.27 991.49 394.27 986.61 398.85C984.76 400.6 983.38 402.87 980.98 404.01C980.38 405.17 979.43 406 978.36 406.71C978.06 407.54 977.44 407.97 976.62 408.17C976.45 408.71 976.08 409.04 975.54 409.18C974.24 410.37 973.33 412.01 971.52 412.58C971.32 412.95 971.21 413.52 970.91 413.66C968.5 414.76 967.02 416.93 965.14 418.62C957.31 425.66 949.56 432.8 941.7 439.8C939.05 442.16 936.27 444.43 933.31 446.37C931.08 447.83 929.02 449.7 926.29 450.32C925.77 450.78 925.32 451.4 924.71 451.67C918.19 454.56 912.19 458.4 905.97 461.83C905.47 462.11 904.97 462.39 904.38 462.1C903.921 462.469 903.452 462.828 902.983 463.187L902.98 463.19C902.79 463.56 902.69 464.07 902.39 464.28C899.32 466.45 896.23 468.59 893.14 470.73L893.07 470.94L892.85 470.95C891.97 471.95 890.98 472.81 889.68 473.22C889.64 473.44 889.5 473.53 889.28 473.48C888.62 474.58 887.52 474.95 886.39 475.27C884.64 477.17 882.81 478.96 880.22 479.67C879.7 480.62 878.97 481.28 877.85 481.41L877.76 481.46C876.47 483.17 874.35 483.66 872.74 484.9L872.67 484.96C869.81 487.49 866.5 489.32 863.08 490.96C862.781 491.219 862.482 491.468 862.183 491.717L862.18 491.72C860.14 493.45 857.91 494.88 855.44 495.92L855.29 496.02C854.4 497.06 853.35 497.83 851.94 497.97C851.62 498.17 851.3 498.38 850.98 498.58C850.6 499 850.3 499.53 849.84 499.81C846.85 501.68 843.82 503.5 840.81 505.33C840.73 505.6 840.56 505.7 840.29 505.65C836.81 508.13 833.46 510.83 829.59 512.72C829.3 512.89 829.01 513.07 828.72 513.24C828.38 513.96 827.87 514.46 827.02 514.48L826.15 514.96C825.04 516.46 823.63 517.53 821.77 517.93C821.4 518.62 820.84 519.07 820.05 519.21C818.14 521.34 815.5 522.41 813.14 523.88C813.12 524.12 812.99 524.22 812.75 524.18C812.38 525.11 811.71 525.63 810.7 525.69C810.43 525.84 810.15 526 809.88 526.15C808.76 527.62 807.29 528.56 805.55 529.12C805.34 529.31 805.13 529.51 804.91 529.69C802.05 532.02 799.4 534.71 795.37 534.94C794.83 534.97 794.28 535.31 793.8 535.61C791.74 536.9 789.74 538.24 787.86 539.8C780.49 545.91 773.6 552.58 766.15 558.6C759.6 563.89 753.37 569.57 746.91 574.98C739.9 580.85 732.79 586.59 725.56 592.19C720.53 596.09 715 599.54 711.57 605.13C715.02 604.79 718.51 604.19 722.07 604.71C723.47 604.92 724.9 604.75 726.33 604.48C730.82 603.63 735.35 603.07 739.94 602.97C742.36 602.92 744.79 602.98 747.2 602.94C750.88 602.88 754.64 602.51 758.29 603.44C757.5 602.8 757.18 602.16 758.28 601.49C760.32 600.26 762.6 600.74 764.56 601.21C772.58 603.13 780.65 604.93 788.08 608.85C790.58 610.17 793.16 611.39 795.72 612.63C797.96 613.72 799.66 615.46 801.61 616.88C802.96 617.86 804 619.36 803.68 621.3C804.4 621.95 804.72 622.78 804.8 623.72C805.78 624.7 806.45 625.83 806.57 627.24C809.73 629.06 812.91 630.85 816.03 632.73C817.2 633.43 818.65 633.86 819.2 635.34C822.25 636.84 823.2 639.46 822.82 642.59C822.59 644.46 822.51 646.54 820.6 647.75C820.59 649.35 819.89 650.58 818.61 651.5C818.73 652.49 818.37 653.22 817.47 653.67C815.06 659.34 811.14 663.81 806.4 667.63C806.3 667.71 806.14 667.7 806 667.74C805.99 668.63 805.5 669.14 804.71 669.42L804.57 669.58C799.35 675.57 793.73 681.16 788.14 686.8C784.24 690.73 779.78 694.06 776.22 698.33C776.07 698.5 775.71 698.5 775.44 698.58C775.03 699.38 774.63 700.17 774.23 700.96C775.34 701.03 776.45 701.07 777.55 701.17C778.15 701.22 778.54 701.6 778.64 702.22C781.05 701.07 783.42 701.49 785.51 702.83C788.84 704.96 792.95 704.41 796.31 706.28C799.32 706.2 802.05 707.53 804.95 708.03C806.54 708.31 808.44 708 809.37 709.93C809.47 710.13 809.85 710.22 810.11 710.31C813.13 711.39 816.15 712.46 819.17 713.54V713.53V713.52C820.26 711.6 822 710.61 824.79 710.3L824.87 710.29L824.9 710.36C825.46 711.68 826.18 712.97 826.94 714.33C827.33 715.03 827.73 715.75 828.11 716.48C829.039 718.259 830.378 719.878 831.667 721.437L831.67 721.44C832.07 721.91 832.48 722.41 832.87 722.9C833.39 723.55 834.17 723.84 835.08 723.73C835.72 723.65 836.47 723.58 837.23 723.61C837.71 723.63 838.08 723.79 838.34 724.07C838.63 724.39 838.76 724.86 838.73 725.47C838.65 726.88 838.3 728.28 837.69 729.65C837.34 730.43 837.51 731.18 838.19 731.87C838.55 732.22 838.94 732.56 839.32 732.89C839.69 733.21 840.07 733.53 840.42 733.88C843.37 736.82 843.67 740.5 841.19 743.25C838.308 746.45 836.312 750.217 834.377 753.867L834.36 753.9C833.75 755.05 833.13 756.23 832.48 757.38C830.84 760.3 829.29 762.81 827.76 765.05C824.221 770.219 819.832 774.618 815.592 778.867L815.59 778.87C808.02 786.45 799.6 793.33 791.63 799.63C787.286 803.075 782.633 806.291 778.138 809.397L778.12 809.41C776.82 810.31 775.52 811.21 774.22 812.12L772.88 813.06L772.438 813.369C768.286 816.273 764.006 819.267 759.66 821.99C752.444 826.516 745.179 831.476 738.754 835.861L738.61 835.96C735.09 838.37 731.55 840.87 728.12 843.3L725.99 844.81C725.26 845.32 724.54 845.83 723.82 846.35C719.96 849.11 715.97 851.96 711.62 854.13C709.67 855.1 707.66 856.37 705.48 857.99C699.96 862.11 693.88 865.33 688.14 868.2C687.27 868.63 686.39 869.06 685.52 869.49C682.85 870.8 680.09 872.16 677.46 873.66C673.02 876.2 668.4 878.42 664.07 880.43C660.57 882.06 657.24 884.12 654.01 886.12L653.65 886.34C653.34 886.53 653.03 886.75 652.73 886.96L652.724 886.964C651.635 887.723 650.507 888.51 648.99 888.42H648.96L648.94 888.41C648.94 888.41 648.94 888.4 648.93 888.4C646.98 890.74 644.18 891.82 641.63 893.23C638.64 894.89 635.45 896.18 632.43 897.79C624.24 902.17 616.1 906.64 607.93 911.07C605.92 912.16 603.81 913.08 601.88 914.29C591.82 920.62 581.14 925.79 570.64 931.3C565.32 934.09 559.96 936.8 554.57 939.45C549.09 942.15 543.49 944.59 538.21 947.73C534.06 950.21 529.59 952.18 525.24 954.32C517.3 958.23 509.3 962.03 501.39 966.01C495.4 969.03 489.75 972.66 484.22 976.44C482.53 977.59 480.62 978.12 478.94 979.16C475.19 981.48 471.57 984.06 467.72 986.21C456.75 992.34 445.67 998.26 434.66 1004.33C425.79 1009.22 417.24 1014.66 408.63 1019.99C404.88 1022.31 401.1 1024.59 397.35 1026.92C391.78 1030.39 386.11 1033.72 380.69 1037.41C374.07 1041.92 367 1045.7 360.3 1050.07C356.84 1052.32 353.09 1054.14 349.49 1056.19C338.633 1062.36 327.787 1068.54 316.94 1074.73L316.69 1074.87C314.7 1076 312.72 1077.15 310.76 1078.33C310.12 1078.72 309.67 1079.27 310.29 1080.05H90.1997H87.6197H85.8997H85.0397H-0.0703125V909.95C0.759687 910.71 1.61969 910.38 2.20969 909.75C4.91969 906.81 8.02969 904.21 10.1897 900.8C12.1797 897.67 14.0697 894.47 16.0097 891.3C18.0297 888 19.8797 884.6 22.0997 881.45C27.8597 873.27 33.3897 864.94 38.7897 856.53C42.1597 851.27 45.3997 845.92 48.5697 840.53C50.5897 837.09 52.6297 833.61 54.1797 829.95C55.9197 825.87 58.0597 822.01 59.9797 818.03C62.2197 813.41 64.7997 808.96 67.1497 804.39C69.8997 799.04 71.9197 793.44 74.0197 787.86C75.9897 782.64 77.7197 777.33 79.7197 772.13C83.2197 763.03 86.0097 753.75 87.6297 744.13C88.8397 736.94 89.8397 729.71 91.1497 722.54C92.7297 713.92 93.3297 705.22 93.4897 696.49C93.7097 684.44 92.1997 672.5 90.6897 660.58C89.6497 652.35 88.2197 644.18 86.9597 635.98C85.9797 629.64 85.0797 623.27 83.9797 616.95C82.7697 610.05 80.5497 603.36 79.7197 596.38C79.6897 596.1 79.5297 595.84 79.4397 595.57C76.8797 587.5 75.7697 579.11 74.0197 570.86C72.5997 564.16 71.5897 557.37 70.1497 550.67C68.5897 543.41 66.1897 536.37 64.0497 529.27C62.1997 523.13 59.3497 517.28 58.4297 510.85C58.3697 510.43 58.1197 510.05 57.9897 509.64C55.0297 500.54 51.0297 491.84 47.4497 482.98C45.8997 479.13 44.3697 475.3 43.2297 471.32C42.7597 469.67 42.4697 467.97 41.9497 466.34C39.4997 458.73 36.9397 451.15 34.5397 443.52C32.6097 437.39 30.6797 431.24 29.0597 425.02C27.3397 418.38 25.4397 411.8 23.5697 405.2C20.8297 395.5 19.5897 385.6 20.0597 375.51C19.9397 372.76 19.2997 370 20.0697 367.24C19.9197 365.95 19.7097 364.64 20.6097 363.49C19.9797 361.43 20.9797 359.82 22.0797 358.24C22.1297 355.67 22.9697 353.41 24.6997 351.49C26.4997 347.29 29.2397 343.97 33.3997 341.9C34.6197 341.29 35.7897 340.95 37.0797 341.52C38.5797 342.17 40.5997 341.99 41.2097 344.09C41.2797 344.35 41.4897 344.58 41.6697 344.8C42.3797 345.68 43.4697 345.66 44.1797 344.71C44.6097 344.14 44.9197 343.5 45.2897 342.89C46.1797 341.43 47.0297 339.94 47.9697 338.51C48.6797 337.43 49.5497 336.46 50.6797 335.8C53.6197 334.08 56.6097 332.43 59.9797 331.7C61.0697 331.46 62.2497 331.48 63.3797 331.58C67.4097 331.92 71.2097 333.1 74.8197 334.91C76.9897 336 79.1797 337.05 81.2597 338.29C86.7797 341.57 92.2497 344.92 97.9997 347.79C98.1297 347.86 98.2597 347.92 98.3597 348.02C102.68 352.07 108.18 354.33 112.93 357.71C115.83 359.77 118.63 361.99 121.24 364.44C125.18 368.14 129.28 371.67 133.25 375.35C135.357 377.304 137.354 379.359 139.355 381.418L139.62 381.69C143.1 385.28 146.55 388.9 150.01 392.51C152.28 394.87 154.61 397.18 156.82 399.6L157.522 400.367C162.678 406.001 167.829 411.63 172.88 417.35C178.3 423.48 182.48 430.48 186.63 437.49C192.03 446.6 196.36 456.24 200.36 466.02C203.05 472.6 205.9 479.15 207.89 486C208.09 486.67 208.18 487.38 208.31 488.07C208.62 488.35 209.08 488.57 209.19 488.91C210.04 491.57 211.4 494.01 212.59 496.51C213.12 496.98 213.77 497.36 214.15 497.92C218.07 503.75 222.87 508.82 227.47 514.08C230.94 518.05 234.34 522.08 237.49 526.32C241.75 532.05 244.33 538.51 246.17 545.26C247.65 550.69 249.79 555.78 252.74 560.51C257 567.34 259.01 574.82 259.69 582.73C259.9 585.14 260.13 587.55 260.27 589.97C260.69 597.3 259.82 604.48 257.84 611.54C257.54 612.62 256.94 613.65 257.17 614.84C256.84 615.32 256.74 615.84 257.34 616.11C257.54 616.19 257.94 615.81 258.25 615.64C259.32 615.83 260.11 615.25 260.98 614.75C263.261 613.441 265.405 611.817 268.113 611.439C268.135 611.416 268.158 611.393 268.18 611.37C268.158 611.393 268.136 611.416 268.114 611.439C268.136 611.436 268.158 611.433 268.18 611.43L268.21 611.12L268.5 611.01C268.57 610.76 268.57 610.38 268.74 610.28C270.24 609.37 271.55 608.11 273.37 607.8C273.79 607.06 274.32 606.5 275.29 606.67C275.73 605.27 277 604.71 278.15 604.29C279.67 603.74 280.86 602.75 282.19 601.94C288.26 598.22 294.22 594.28 300.53 591C305.71 588.31 310.82 585.52 315.77 582.44C316.37 582.07 316.99 581.67 317.65 581.42C321.41 579.98 324.74 577.74 328.21 575.76C329.44 575.06 330.5 574.04 332.03 573.95C332.43 573.93 332.88 573.71 333.19 573.44C337.58 569.66 343.14 567.95 348.03 565.05C352.94 562.14 358.06 559.59 363.05 556.81C367.03 554.59 370.96 552.28 374.9 549.99C375.42 549.68 375.91 549.5 376.46 549.87C377.06 549.59 377.65 549.31 378.25 549.03C378.83 547.81 379.94 547.15 381.04 546.51C384.36 544.6 387.43 542.25 391.05 540.89C391.36 540.73 391.66 540.58 391.97 540.43C392.28 539.64 392.94 539.59 393.65 539.63C393.99 539.35 394.34 539.06 394.68 538.77C394.92 538.01 395.4 537.59 396.23 537.67C396.56 537.45 396.88 537.24 397.21 537.02C397.51 536.28 398.02 535.76 398.82 535.56C399.32 534.6 400.19 534.34 401.18 534.3C403.27 532.24 405.46 530.33 408.27 529.29L409.29 528.45C410.4 527.13 411.65 526 413.41 525.62C413.92 524.94 414.57 524.46 415.38 524.19C415.6 523.46 416.08 523.08 416.86 523.17C417.22 522.93 417.58 522.7 417.94 522.46C418.85 520.85 420.4 520.1 422.01 519.43C422.72 518.99 423.44 518.56 424.16 518.12C425.69 515.68 428.22 514.49 430.51 513L430.64 512.91C432.85 511.17 435.06 509.44 437.27 507.7L437.36 507.63C440 505.12 443.22 503.41 446.13 501.28C446.57 500.5 447.24 500.27 448.09 500.45C448.59 498.99 449.86 498.24 451.02 497.47C454.68 495.04 458.42 492.72 462.08 490.29C463.26 489.51 464.28 488.5 465.38 487.6C466.03 487.07 466.67 486.45 467.64 486.67C467.88 485.8 468.53 485.24 469.24 484.78C472.19 482.85 475.13 480.91 478.14 479.07C479.44 478.27 480.53 477.05 482.17 476.84C484.05 475.06 486.24 473.77 488.54 472.64C494.93 469.51 501.18 466.12 507.55 462.95C511.96 460.75 515.87 457.54 520.01 454.78L520.2 454.59C521.73 453.37 523.27 452.17 525.15 451.54C525.41 451.36 525.66 451.19 525.92 451.02C526.24 450 527.03 449.39 527.86 448.85C531.89 446.23 535.66 443.25 539.87 440.89C543.31 438.97 546.64 436.83 550.01 434.79C551.22 433.8 552.4 432.75 553.67 431.84C554.83 431 555.51 431.13 556.69 432.11C558.8 433.86 558.87 433.82 561.03 432.33C565.26 429.42 569.44 426.4 573.81 423.7C579.41 420.25 584.66 416.31 590.11 412.66C596.17 408.61 601.82 403.96 608.16 400.31C612.49 397.81 616.63 394.99 620.82 392.25C625.84 388.96 630.67 385.37 636.08 382.71C636.97 382.27 637.75 381.61 638.59 381.07C642.57 378.54 646.29 375.66 650.37 373.26C655.05 370.51 659.56 367.49 664.01 364.36C668.8 361 673.86 358.03 678.85 354.96C682.74 352.56 686.71 350.3 690.61 347.93C693.77 346.01 696.87 343.99 700.02 342.06C701.24 341.31 702.59 340.78 703.78 340C709.76 336.1 715.85 332.39 722.19 329.1L722.597 328.889C727.281 326.459 731.956 324.033 737.01 322.4C740.68 321.21 744.28 319.82 747.9 318.48C748.7 318.18 749.52 317.84 750.19 317.33C752.47 315.59 755.09 314.45 757.53 312.99C757.5 310.73 759.68 310.72 760.91 309.8C761.493 309.36 762.424 309.396 763.222 309.251C763.258 309.244 763.294 309.238 763.33 309.23C763.9 307.78 765.24 307.14 766.41 306.33C765.99 305.84 766.42 305.57 766.71 305.32C769.54 302.94 772.53 300.84 775.71 298.89C778.2 297.36 780.93 296.15 783.17 294.03C785.17 292.13 788.06 291.17 790.55 289.78C793.66 288.04 796.85 286.43 799.63 284.14C800.39 283.52 801.34 283.13 802.22 282.67C802.97 282.28 803.79 281.98 804.52 281.55C808.07 279.46 811.65 277.49 815.49 275.89C818.47 274.65 821.23 272.75 824.3 271.58C829.41 269.63 834.65 268.24 840.13 267.97C844.7 267.74 849.24 268.26 853.76 268.96C855.6 269.24 857.43 269.59 859.28 269.82C860.97 270.03 861.24 269.79 862.03 267.9C862.189 267.513 862.357 267.125 862.526 266.738L862.53 266.73C862.56 265.62 862.83 264.73 864.2 264.76C865.06 263.14 866.59 262.98 867.88 263.68C870.72 265.22 873.74 266.54 875.97 269.02C876.56 269.12 876.91 269.47 877.01 270.06C877.88 270.65 878.56 271.37 878.67 272.47C880.12 273.77 881.58 275.07 883.03 276.37C883.55 276.3 884.08 276.22 884.6 276.15L884.577 276.077C883.194 271.722 881.813 267.37 878.87 263.73C878.72 263.55 878.79 263.19 878.75 262.92C877.57 261.63 876.85 260.08 876.38 258.42C875.96 256.91 874.9 256.4 873.5 256.42C872.36 256.44 871.22 256.51 870.1 256.68C862.77 257.82 855.49 259.19 848.43 261.54C845.15 262.63 841.73 262.9 838.32 263.14C837.06 263.23 835.76 262.98 834.51 262.72C833.41 262.49 832.92 261.54 832.75 260.52C832.62 259.73 833.2 259.21 833.82 258.83C835.16 258.01 836.44 257.07 838 256.71C841.47 255.9 844.94 255.13 848.42 254.36C854.72 252.97 861.11 252.9 867.52 253.2L867.593 253.203C868.132 253.222 868.703 253.243 869.21 253.09C872.28 252.15 875.4 252.65 878.5 252.71C879.16 252.42 879.82 252.31 880.48 252.69C883.3 252.51 885.75 253.52 887.95 255.16C890.43 257 893.14 258.58 894.91 261.23C895.52 261.58 896.26 261.81 896.73 262.3C898.9 264.53 901 266.84 903.11 269.13C903.39 269.44 903.7 269.8 903.81 270.19C905.02 274.43 907.76 278.03 908.81 282.33C909.66 282.08 910.47 281.9 911.02 282.9C911.79 284.29 912.49 285.69 912.24 287.35C911.98 289.08 912.19 290.74 912.73 292.41C913.03 293.33 913.15 294.42 913 295.37C912.24 300.15 911.37 304.92 910.5 309.68C910.42 310.07 910.08 310.41 909.86 310.77C910.03 311.28 909.89 311.74 909.57 312.15C909.57 312.71 909.57 313.26 909.55 313.82C909.49 315.17 908.69 315.97 907.43 316.04C905.74 316.14 904.04 316.05 902.35 315.93C901.74 315.88 901.46 315.3 901.47 314.67C901.01 313.96 900.6 313.2 900.06 312.54C899.29 311.6 898.96 310.58 899.13 309.37C899.36 307.68 899.29 305.97 899.71 304.28C901.39 297.58 901.8 290.81 901.3 283.89C900.83 277.36 898.37 272.12 893.24 268.05C891.86 266.95 890.44 266.08 888.71 265.79C888.33 265.72 887.76 265.7 887.56 265.92C887.37 266.13 887.42 266.75 887.6 267.06C890.12 271.41 891.9 276.01 892.79 280.98C893.248 283.569 893.915 286.131 894.58 288.684L894.72 289.22C894.93 290.03 895.33 290.82 895.78 291.53C897.74 294.62 899.16 297.78 897.78 301.53C897.59 302.05 897.57 302.68 897.64 303.23C897.98 305.94 896.97 308.29 895.72 310.56C893.24 315.07 890.37 319.32 886.94 323.17C884.64 326.93 881.77 330.27 878.97 333.64C877.41 335.52 875.48 336.53 872.79 336.86C869.06 337.31 865.17 336.98 861.57 338.41C860.72 338.84 859.88 339.28 859.03 339.72C858.6 340.41 858.03 340.89 857.19 340.99C853.61 344.22 850.03 347.44 846.45 350.67C845.72 351.81 844.73 352.67 843.58 353.35C843.41 353.85 843.06 354.14 842.54 354.24C840.53 357.05 837.77 359.13 835.36 361.55C833.55 363.37 831.63 365.08 829.78 366.87C829.61 367.04 829.46 367.45 829.55 367.63C829.79 368.13 830.26 367.99 830.62 367.77C834.12 365.58 838.04 364.19 841.6 362.05C844.88 360.08 848.69 359.07 851.99 357.03C853.69 355.98 855.55 355.21 857.11 353.9C857.97 353.18 859.03 352.61 860.1 352.28C864.21 350.98 867.76 348.56 871.59 346.71C872.11 346.46 872.87 346.38 873.12 345.98C874.43 343.84 876.71 343.37 878.74 342.43C880.69 341.53 882.62 340.62 884.54 339.66C889.01 337.42 893.72 335.77 898.33 333.87C902.93 331.98 907.26 329.41 911.75 327.23C916.154 325.087 920.461 322.741 924.757 320.401L924.98 320.28C925.23 320.15 925.56 320.1 925.74 319.9C929.14 316.15 934.13 315.18 938.27 312.72C938.76 312.43 939.3 312.22 939.77 311.9C941.01 311.06 941.25 309.63 940.07 308.73C938.39 307.46 937.8 305.46 936.44 303.99C935.95 303.47 935.9 302.66 936.19 301.95L936.247 301.808C936.658 300.793 937.072 299.767 937.98 299.07C939.45 297.94 940.82 296.57 942.47 295.8C947.5 293.44 952.38 290.66 957.85 289.44C959.3 289.11 960.34 288.13 961.77 287.83C964.28 287.3 966.72 286.46 969.21 285.85C976.29 284.13 983.38 282.44 990.48 280.8C991.72 280.51 993.05 280.33 994.31 280.44C1000.71 281.02 1007.16 281.04 1013.5 282.3C1016.04 282.8 1018.41 283.55 1020.67 284.96C1023.46 286.7 1026.39 288.18 1028.55 290.74C1028.9 291.16 1029.16 291.67 1029.46 292.14C1029.96 292.73 1030.47 293.33 1030.98 293.92C1033.6 296.25 1036.36 298.44 1038.8 300.94Z" fill="#2D82DF"/>
<path d="M398.111 616.05C398.081 616.06 398.051 616.07 398.031 616.07C398.021 616.09 398.011 616.11 398.001 616.13C397.991 616.14 398.111 616.05 398.111 616.05Z" fill="#2D82DF"/>
<path d="M397.26 616.94C397.23 616.93 397.19 616.92 397.16 616.9C397.16 616.94 397.15 616.98 397.15 617.02C397.15 617.02 397.26 616.94 397.26 616.94Z" fill="#2D82DF"/>
<path d="M103.21 1065.35C103.19 1065.35 103.17 1065.35 103.15 1065.35C103.13 1065.38 103.12 1065.4 103.1 1065.43C103.14 1065.44 103.17 1065.45 103.21 1065.45C103.21 1065.42 103.21 1065.38 103.21 1065.35ZM103.15 1065.4C103.16 1065.39 103.16 1065.39 103.17 1065.38L103.15 1065.4Z" fill="#2D82DF"/>
<path d="M397.15 617.02C397.17 617.01 397.19 617 397.21 617C397.23 616.98 397.24 616.96 397.26 616.94L397.15 617.02Z" fill="#2D82DF"/>
<path d="M397.99 616.14C398.02 616.14 398.05 616.14 398.09 616.14C398.1 616.11 398.11 616.09 398.11 616.05L397.99 616.14Z" fill="#2D82DF"/>
<path d="M104.91 1064.53C104.93 1064.52 104.95 1064.51 104.95 1064.51C104.91 1064.5 104.86 1064.49 104.82 1064.48C104.83 1064.51 104.83 1064.53 104.84 1064.56C104.87 1064.56 104.9 1064.55 104.93 1064.54C104.93 1064.53 104.94 1064.52 104.95 1064.51L104.91 1064.53Z" fill="#2D82DF"/>
<path d="M819.391 713.5C820.551 711.46 822.441 710.61 824.931 710.33C825.791 712.36 827.051 714.36 828.151 716.46C829.371 718.8 831.251 720.81 832.921 722.9C833.461 723.58 834.291 723.88 835.221 723.77C835.921 723.68 836.641 723.62 837.351 723.65C838.341 723.7 838.801 724.34 838.741 725.4C838.661 726.85 838.301 728.22 837.711 729.54C837.311 730.44 837.601 731.23 838.241 731.88C838.941 732.59 839.761 733.19 840.461 733.9C843.181 736.61 843.811 740.26 841.231 743.12C837.421 747.35 835.211 752.44 832.501 757.27C831.031 759.89 829.481 762.45 827.791 764.93C824.301 770.03 819.971 774.38 815.631 778.73C808.151 786.23 799.961 792.93 791.681 799.48C786.081 803.9 780.121 807.87 774.271 811.96C769.471 815.32 764.681 818.71 759.721 821.82C752.581 826.3 745.621 831.04 738.671 835.8C734.431 838.7 730.241 841.69 726.041 844.65C721.381 847.95 716.841 851.4 711.691 853.97C709.531 855.05 707.471 856.4 705.531 857.84C700.121 861.87 694.201 865.05 688.201 868.04C684.621 869.83 681.001 871.52 677.521 873.51C673.181 876 668.671 878.17 664.141 880.28C660.501 881.97 657.111 884.09 653.701 886.2C652.271 887.08 650.991 888.38 649.101 888.26C648.471 887.87 647.801 887.62 647.071 887.87C645.851 888.27 644.631 888.7 643.421 889.14C642.341 889.53 641.301 890.04 640.201 890.34C633.321 892.26 626.511 894.49 619.471 895.8C616.801 896.3 614.111 896.79 611.411 896.93C608.521 897.08 605.761 897.82 602.931 898.21C599.251 898.71 595.611 899.44 591.891 899.67C588.901 899.85 585.951 900.45 582.971 900.86C581.981 901 580.991 901.26 580.001 901.26C572.981 901.29 565.951 901.46 558.941 901.19C554.391 901.02 549.871 899.95 545.321 899.7C541.281 899.48 537.341 898.81 533.491 897.75C522.541 894.73 512.021 890.58 502.151 884.94C498.031 882.59 494.371 879.6 492.261 875.13C492.081 874.75 491.821 874.38 491.521 874.09C487.061 869.84 484.631 864.26 481.981 858.93C478.711 852.35 476.761 845.31 477.121 837.82C477.181 836.54 477.121 835.24 477.091 833.96C477.051 832.33 476.321 831.26 474.651 830.9C470.951 830.12 467.691 828.29 464.371 826.6C461.811 825.3 459.391 823.85 457.391 821.69C456.351 820.57 454.801 819.94 453.621 818.93C450.781 816.48 448.601 813.46 446.661 810.27C445.031 807.59 443.491 804.85 441.951 802.1C441.541 801.36 441.281 800.54 441.001 799.73C440.541 798.38 440.271 796.94 439.661 795.66C437.171 790.39 436.321 784.78 435.841 779.06C435.741 777.92 435.611 776.78 435.381 775.67C434.931 773.54 434.861 771.37 435.141 769.26C436.271 760.9 437.971 752.68 440.541 744.59C442.251 739.21 444.581 734.18 447.241 729.29C449.151 725.79 451.521 722.54 453.691 719.18C453.841 718.94 454.021 718.7 454.241 718.53C458.801 714.98 461.901 710.09 465.751 705.91C467.291 704.23 469.031 702.72 470.761 701.23C471.931 700.22 473.001 700.36 474.231 701.38C475.591 702.5 476.381 704.05 477.351 705.46C478.331 706.89 479.301 708.22 480.941 709.04C482.221 709.67 482.371 710.54 481.881 711.94C481.651 712.61 481.371 713.28 481.011 713.9C478.231 718.73 475.721 723.76 472.001 727.97C469.981 730.26 468.401 732.8 466.971 735.42C464.371 740.18 462.001 745.08 459.661 749.99C458.301 752.85 457.901 756.02 457.051 759.05C455.391 764.99 454.551 771.02 454.721 777.2C454.791 779.79 455.131 782.31 455.571 784.85C455.961 787.05 457.111 788.56 459.041 789.42C461.651 790.59 463.621 792.89 466.501 793.57C466.891 793.66 467.261 794 467.541 794.31C468.961 795.91 470.751 796.47 472.861 796.68C474.681 796.86 476.441 797.68 478.251 798.07C482.221 798.91 486.231 798.61 490.171 797.94C492.311 797.58 494.421 797.44 496.571 797.38C500.421 797.26 504.281 797.66 508.131 796.82C510.661 796.26 512.521 797.64 513.691 799.9C513.661 800.86 513.971 801.61 515.021 801.74C515.711 801.82 516.521 801.95 517.121 801.69C519.701 800.58 522.731 801.34 525.161 799.68C525.341 799.56 525.711 799.73 525.991 799.77C525.851 802.28 524.061 803.98 522.541 805.53C521.361 806.74 520.881 808.14 520.121 809.45C519.471 810.56 519.951 811.71 521.131 812.25C521.771 812.54 522.481 812.68 523.171 812.84C524.561 813.17 525.971 813.42 527.351 813.82C528.021 814.01 528.661 814.38 529.221 814.79C530.131 815.45 530.281 816.57 529.531 817.43C528.691 818.39 527.781 819.33 526.791 820.13C521.391 824.53 515.411 827.79 508.531 829.26C507.831 829.41 507.161 829.67 506.481 829.9C505.451 830.26 504.731 830.94 504.691 832.07C504.581 835.07 504.331 838.08 505.011 841.05C505.431 842.86 505.961 844.65 506.341 846.47C506.871 848.95 508.451 850.82 509.911 852.76C510.531 853.59 511.521 853.9 512.471 854.25C519.111 856.67 525.091 860.28 530.841 864.31C532.001 865.12 533.261 865.89 534.581 866.37C537.801 867.54 541.081 868.55 544.351 869.57C545.991 870.08 547.691 870.41 548.731 872.01C549.251 872.8 550.131 873.01 551.001 872.99C556.711 872.84 562.401 873.16 568.141 872.53C574.831 871.8 581.381 870.3 588.041 869.44C592.701 868.84 597.281 867.69 601.711 865.89C607.271 863.63 613.011 861.81 618.671 859.81C619.211 859.62 619.761 859.46 620.331 859.36C626.471 858.34 632.111 855.94 637.701 853.33C645.631 849.62 652.891 844.75 660.541 840.56C667.291 836.86 673.621 832.38 680.841 829.51C683.611 828.41 686.181 826.79 688.771 825.3C691.741 823.6 695.101 822.62 697.761 820.37C702.421 818.84 706.501 816.14 710.751 813.8C717.131 810.29 723.611 806.94 729.731 802.97C730.571 802.42 731.401 801.86 732.431 801.7C733.461 801.54 734.311 801.05 735.061 800.35C737.611 798 740.741 796.53 743.691 794.79C745.421 793.78 747.201 792.83 748.781 791.62C750.381 790.39 752.031 789.3 753.841 788.41C754.611 788.03 755.401 787.63 756.031 787.07C761.701 782.03 768.151 778 773.981 773.19C777.171 770.55 780.261 767.79 783.331 765.01C784.271 764.16 785.171 763.16 785.781 762.05C787.681 758.57 790.551 756.02 793.561 753.58C794.001 753.22 794.631 752.99 794.901 752.53C796.721 749.49 799.571 747.28 801.421 744.25C802.531 742.43 803.821 740.7 805.141 739.02C806.121 737.76 806.931 736.44 807.331 734.89C808.811 733.63 808.841 733.18 807.501 732.63C807.111 732.47 806.711 732.33 806.301 732.22C804.941 731.85 804.561 732.71 804.361 733.79C804.081 733.76 803.781 733.77 803.511 733.71C802.161 733.42 801.071 732.8 800.931 731.28C800.841 730.29 802.081 729.66 803.981 729.62C805.281 729.59 806.511 729.84 807.751 730.28C810.471 731.25 810.721 731.14 812.071 728.57C813.531 725.79 814.921 722.97 816.301 720.15C817.381 717.92 818.371 715.7 819.391 713.5Z" fill="#036EC6"/>
<path d="M213.971 503.64C217.321 513.05 220.361 522.58 223.271 532.13C225.311 538.82 227.651 545.41 229.551 552.15C231.531 559.15 234.161 565.96 236.291 572.92C239.501 583.44 243.151 593.78 248.021 603.66C249.411 606.48 250.901 609.24 252.371 612.02C252.981 613.17 253.731 613.93 255.201 614.3C257.371 614.85 259.041 616.32 260.151 618.44C261.471 620.97 263.021 623.37 264.481 625.83C264.911 626.55 265.141 627.44 266.091 627.74C267.581 627.07 268.711 625.92 269.441 624.53C270.301 622.9 272.341 623.34 273.301 622.02C273.381 621.91 273.521 621.82 273.581 621.7C274.681 619.43 276.951 618.74 278.971 617.72C281.511 616.43 284.141 615.29 286.561 613.8C289.461 612.01 292.291 610.12 295.471 608.84C296.391 608.47 297.381 608.05 298.071 607.38C301.301 604.22 305.721 603.08 309.411 600.68C312.101 598.93 315.161 597.68 318.051 596.18C320.571 594.87 322.631 592.84 325.331 591.84C327.071 591.19 328.591 590.13 330.161 589.13C333.411 587.07 336.481 584.7 339.761 582.77C345.871 579.15 351.541 574.77 358.101 571.92C358.861 571.59 359.611 571.03 360.111 570.38C360.851 569.41 361.851 568.96 362.831 568.37C366.741 566.01 370.611 563.59 374.491 561.17C376.301 560.04 378.011 558.72 379.891 557.74C381.931 556.68 383.501 555 385.351 553.71C387.381 552.3 389.671 551.56 391.731 550.29C394.271 548.72 396.681 546.95 399.271 545.51C401.921 544.03 404.221 542.18 406.381 540.1C407.101 539.41 407.831 538.67 408.691 538.21C414.331 535.17 419.011 530.58 425.051 528.19C428.121 525.18 431.931 523.25 435.501 520.96C436.081 520.59 436.481 519.98 437.221 519.76C439.411 519.11 440.631 516.8 442.961 516.37C446.841 512.55 451.771 510.24 456.121 507.09C460.371 504.01 465.161 501.68 469.011 498C469.721 497.32 470.651 496.86 471.531 496.39C475.331 494.37 478.851 491.93 482.231 489.3C486.731 485.8 491.501 482.68 496.231 479.51C499.911 477.04 503.771 474.88 507.521 472.54C512.841 469.22 518.061 465.75 523.311 462.32C529.511 458.27 535.711 454.22 541.871 450.11C543.651 448.93 545.161 447.3 547.041 446.34C551.251 444.2 554.651 440.91 558.761 438.58C562.431 436.5 565.781 433.75 569.311 431.33C570.011 430.85 570.701 430.33 571.321 429.74C573.391 427.73 575.931 426.42 578.301 424.84C580.981 423.04 583.951 421.74 586.411 419.52C589.151 417.06 592.151 414.71 595.431 413.1C598.581 411.56 601.281 409.55 603.821 407.31C607.371 404.18 611.471 401.87 615.271 399.13C619.891 395.8 624.691 392.73 629.491 389.67C632.971 387.45 636.391 385.12 639.841 382.88C644.721 379.7 650.171 377.33 654.351 373.11C656.231 372.61 657.171 370.81 658.791 369.91C661.281 368.53 663.621 366.89 666.031 365.37C668.311 363.94 670.521 362.34 672.931 361.17C674.211 360.54 675.461 359.94 676.621 359.1C680.581 356.25 685.031 354.25 689.411 352.19C691.691 351.12 694.071 350.31 696.151 348.8C697.761 347.64 699.521 346.59 701.361 345.87C703.641 344.98 705.841 343.95 707.801 342.53C709.851 341.05 712.681 340.86 714.241 338.59C714.381 338.39 714.731 338.32 715.001 338.22C721.461 335.84 727.041 331.78 733.141 328.71C735.551 327.5 738.081 326.41 740.271 324.86C744.961 321.55 750.271 319.41 755.251 316.67C759.381 314.4 763.451 312.04 767.491 309.65C773.621 306.04 779.421 301.87 785.971 298.98C787.661 298.23 789.051 296.98 790.891 296.43C794.951 295.21 798.461 292.6 802.631 291.61C806.071 288.96 810.171 287.66 814.141 286.12C818.931 284.27 823.391 281.63 828.381 280.24C833.041 278.94 837.671 277.5 842.311 276.11C845.041 275.3 847.851 274.67 850.491 273.62C855.131 271.77 860.021 271.79 864.821 271.65C867.471 271.57 870.211 271.92 872.921 272C875.781 272.09 878.571 272.73 881.271 273.69C883.041 274.32 884.061 275.61 884.281 277.49C884.381 278.34 884.481 279.2 884.541 280.05C885.061 287.47 885.031 294.89 884.111 302.28C883.921 303.85 883.521 305.47 884.011 306.96C884.741 309.21 883.871 310.81 882.511 312.41C880.281 315.04 878.531 318.03 877.101 321.11C875.621 324.3 873.361 326.54 870.361 327.99C863.911 331.11 858.331 335.53 852.641 339.75C849.671 341.95 846.091 343.25 843.541 346.04C841.791 346.45 840.691 347.59 839.511 348.92C838.431 350.14 836.711 351.19 835.131 351.44C833.311 351.73 831.961 352.59 830.681 353.59C828.341 355.42 825.351 356.38 823.541 358.93C823.331 359.22 822.831 359.38 822.441 359.46C820.171 359.91 818.281 361.17 816.631 362.64C815.331 363.8 814.171 365 812.391 365.36C812.001 365.44 811.401 365.71 811.331 365.99C810.901 367.76 809.151 367.68 808.031 368.44C806.851 369.24 805.511 369.79 804.311 370.56C797.301 375.13 790.841 380.5 783.691 384.87C783.331 385.09 782.891 385.28 782.651 385.61C781.341 387.41 779.381 388.33 777.611 389.51C776.551 390.22 775.341 390.86 774.561 391.82C773.431 393.23 771.981 394.05 770.431 394.78C769.521 395.21 768.751 395.82 767.941 396.42C763.481 399.71 759.101 403.16 754.411 406.1C749.441 409.21 744.821 412.75 740.161 416.26C735.951 419.44 731.791 422.67 727.501 425.73C725.541 427.13 723.531 428.49 721.821 430.16C718.851 433.05 715.251 435.08 712.061 437.66C710.851 438.64 709.511 439.46 708.351 440.55C707.421 441.43 706.381 442.23 705.261 442.84C703.121 444 701.151 445.3 699.521 447.17C698.701 448.11 697.481 448.71 696.421 449.43C695.361 450.16 694.101 450.68 693.231 451.58C690.611 454.28 687.291 455.98 684.251 458.06C681.671 459.82 679.041 461.5 676.531 463.34C673.431 465.61 670.521 468.15 667.031 469.84C666.101 470.29 665.331 470.89 664.591 471.55C659.471 476.1 653.771 479.87 648.151 483.74C643.101 487.21 637.861 490.4 632.651 493.64C630.711 494.85 628.791 496.07 626.881 497.33C623.311 499.7 619.691 502.01 615.921 504.04C612.381 505.94 609.021 508.01 606.141 510.84C604.821 512.14 603.361 513.31 601.861 514.41C597.181 517.84 592.761 521.62 587.671 524.47C585.351 527.26 582.211 529.03 579.351 531.15C576.041 533.61 572.831 536.21 569.471 538.59C565.571 541.34 562.561 544.97 559.361 548.42C558.701 549.13 558.381 550.15 557.931 551.05C556.631 553.65 556.221 556.19 558.551 558.5C559.531 562.26 562.671 562.17 565.601 562.4C566.301 562.45 567.031 562.34 567.731 562.23C571.301 561.65 574.611 560.33 577.671 558.43C581.561 556.02 585.401 553.53 589.081 550.8C594.471 546.8 600.001 543 605.401 539.01C610.011 535.6 614.971 532.75 619.691 529.54C627.021 524.55 634.261 519.43 641.551 514.38C651.421 507.53 661.311 500.71 671.181 493.86C677.881 489.22 684.541 484.52 691.261 479.91C697.871 475.39 704.601 471.05 711.161 466.45C717.241 462.18 723.461 458.14 729.831 454.32C739.641 448.44 749.371 442.42 758.781 435.91C765.131 431.53 771.441 427.1 777.791 422.72C779.671 421.43 781.681 420.33 783.521 418.98C792.511 412.4 802.061 406.65 811.101 400.13C816.771 396.04 822.501 392 828.121 387.86C836.071 382.02 844.111 376.3 852.171 370.64C864.451 362.01 877.351 354.31 890.371 346.84C900.281 341.15 910.331 335.72 920.351 330.21C927.371 326.35 934.741 323.23 942.121 320.17C949.511 317.11 957.061 314.46 964.711 312.09C973.041 309.5 981.381 306.95 989.891 305C1000.35 302.6 1010.03 304 1018.81 310.52C1021.19 312.29 1022.92 314.4 1024.04 317.12C1025 319.45 1025.02 321.82 1024.82 324.28C1023.89 335.54 1019.8 345.71 1013.71 355.04C1009.43 361.59 1004.59 367.79 999.541 373.78C993.281 381.21 986.651 388.31 980.211 395.58C975.461 400.95 970.631 406.13 964.971 410.54C962.611 412.38 960.541 414.56 958.241 416.48C954.201 419.87 949.581 422.56 945.981 426.5C945.611 426.91 945.021 427.12 944.561 427.46C942.401 429.08 940.271 430.76 938.081 432.34C934.601 434.85 931.921 438.29 928.291 440.63C926.971 441.48 925.691 442.39 924.451 443.35C917.581 448.68 910.771 454.09 903.821 459.34C902.671 460.21 901.911 461.46 900.651 462.16C893.241 466.24 887.031 472.04 879.971 476.67C875.111 479.86 870.351 483.29 865.471 486.45C860.101 489.92 854.891 493.64 849.361 496.92C841.771 501.42 834.651 506.73 827.431 511.84C825.431 513.26 823.121 514.1 821.171 515.5C815.841 519.34 809.981 522.3 804.551 525.96C801.961 527.7 799.131 529.03 796.601 530.9C794.201 532.67 791.741 534.39 788.941 535.53C788.301 535.79 787.631 536.19 787.201 536.72C786.271 537.87 785.001 538.48 783.811 539.26C774.201 545.62 764.521 551.9 755.101 558.54C751.151 561.32 747.341 564.36 743.471 567.28C737.891 571.48 732.501 575.93 727.041 580.29C724.591 582.25 722.171 584.24 719.701 586.19C716.581 588.66 713.401 591.05 710.311 593.55C706.021 597.02 701.491 599.74 695.761 600.25C692.381 600.55 689.081 601.66 685.731 602.31C683.891 602.67 682.121 603.21 680.471 604.09C679.571 604.57 678.691 604.96 677.651 605.01C676.071 605.09 674.621 605.69 673.121 606.19C664.751 608.96 656.311 611.55 647.951 614.36C643.771 615.76 639.441 616.68 635.381 618.51C634.081 619.1 633.041 620.14 631.641 620.47C625.261 621.96 619.671 625.74 613.181 626.93C612.771 627 612.351 627.21 612.021 627.47C609.721 629.27 607.011 630.15 604.281 630.97C599.871 632.31 595.731 634.36 591.831 636.69C586.701 639.76 580.881 641.43 576.001 644.91C571.781 646.29 567.891 648.41 563.871 650.23C558.171 652.8 552.381 655.24 546.901 658.24C543.011 660.37 538.951 662.08 534.991 664.02C530.001 666.48 525.071 669.05 520.531 672.31C517.991 674.13 515.441 675.96 512.791 677.62C508.201 680.49 503.461 683.1 498.991 686.18C495.831 688.36 492.551 690.39 489.191 692.24C483.321 695.46 477.611 698.91 472.211 702.86C467.961 705.96 463.701 709.05 460.381 713.22C459.771 713.99 458.991 714.68 458.171 715.23C454.641 717.55 452.441 721.13 449.791 724.24C445.951 728.74 443.701 734.23 441.661 739.71C440.521 742.76 439.481 745.87 438.931 749.16C438.011 754.68 439.021 759.97 440.161 765.28C440.701 767.79 441.071 770.46 442.601 772.56C445.481 776.49 447.251 781.07 450.111 784.98C450.871 786.02 451.691 787.01 452.391 788.08C455.711 793.15 460.071 797.23 464.901 800.78C469.611 804.25 475.101 805.95 480.851 806.61C487.951 807.42 495.061 808.1 502.241 807.62C504.661 807.46 507.101 807.65 509.531 807.71C510.321 807.73 510.891 808.69 510.411 809.18C506.611 813.1 504.921 818.12 502.951 823.03C499.381 831.91 500.971 840.47 504.631 848.8C506.451 852.96 509.751 856.34 511.631 860.51C513.911 861.87 514.801 864.35 516.281 866.34C517.411 867.85 519.061 868.74 520.801 869.42C522.061 869.92 522.911 870.7 523.931 872.15C524.241 872.59 524.731 872.94 525.211 873.21C529.091 875.38 533.301 876.86 537.491 878.11C543.081 879.78 548.911 880.7 554.801 880.73C561.661 880.76 568.511 880.49 575.271 879.16C579.481 878.34 583.751 877.74 587.881 876.64C599.091 873.66 609.851 869.39 620.481 864.81C628.471 861.36 636.271 857.53 644.061 853.66C653.281 849.08 662.411 844.36 671.161 838.92C674.441 836.88 677.691 834.79 680.951 832.72C682.681 831.63 684.011 830.14 685.111 828.45C685.701 827.53 684.941 826.01 683.841 825.84C683.421 825.78 682.971 825.69 682.571 825.78C680.911 826.14 679.971 825.41 679.091 824.02C677.191 821.04 675.091 818.19 673.041 815.3C670.821 812.18 670.291 812 666.651 813.59C664.331 814.61 661.891 815.55 659.871 817.03C655.581 820.17 650.111 821.07 646.071 824.61C645.971 824.7 645.811 824.78 645.691 824.78C642.681 824.78 640.311 826.58 637.661 827.58C631.381 829.95 625.271 832.7 619.231 835.64C617.311 836.58 615.341 837.42 613.391 838.29C611.021 839.34 608.511 839.91 606.151 840.92C597.641 844.59 589.011 847.95 580.191 850.83C575.961 852.21 571.661 853.35 567.321 853.99C563.691 854.53 560.001 855.06 556.251 854.97C549.801 854.81 543.461 854.1 537.191 852.61C535.111 852.11 533.001 851.78 530.961 851.06C529.051 850.38 527.831 849.09 527.021 847.37C526.281 845.81 526.031 844.11 525.841 842.39C525.391 838.37 526.831 834.77 528.291 831.24C530.441 826.04 533.831 821.6 537.491 817.37C542.681 811.39 548.661 806.32 555.071 801.69C559.281 798.65 563.671 796.11 568.761 794.82C571.521 794.12 574.211 793.09 576.881 792.09C586.111 788.62 595.311 785.07 604.541 781.6C612.571 778.58 620.581 775.52 628.661 772.64C637.961 769.33 646.991 765.37 656.091 761.57C664.921 757.89 673.621 753.92 682.411 750.13C688.821 747.36 695.361 744.87 701.691 741.91C711.151 737.5 720.521 732.9 729.831 728.17C739.771 723.12 749.591 717.86 759.451 712.65C763.191 710.68 767.051 709.49 771.351 709.68C778.621 710.01 785.891 710.19 793.161 710.77C797.601 711.13 802.001 711.85 806.181 713.03C810.511 714.25 814.941 715.44 819.101 717.43C822.591 719.1 825.931 720.84 828.931 723.32C833.601 727.18 835.351 731.92 833.931 737.82C832.641 743.17 830.181 748.02 827.331 752.66C826.081 754.69 825.181 756.98 823.291 758.62C821.571 760.11 820.031 761.82 818.381 763.4C815.101 766.54 812.461 770.39 808.301 772.58C807.831 772.83 807.381 773.35 807.211 773.84C806.791 775.04 805.801 775.59 804.901 776.28C803.531 777.31 802.211 778.38 801.121 779.72C800.121 780.95 798.841 781.87 797.431 782.61C794.271 784.27 792.431 787.65 789.031 789.03C788.811 789.12 788.621 789.46 788.551 789.71C788.151 791.13 787.061 791.78 785.771 792.08C784.601 792.36 783.721 793 782.851 793.77C779.001 797.15 774.901 800.2 770.621 803.01C769.651 803.65 768.741 804.29 768.061 805.25C767.141 806.55 766.121 807.57 764.351 807.83C763.481 807.96 762.451 808.77 761.981 809.56C760.901 811.42 759.061 812.19 757.441 813.3C756.621 813.86 755.631 814.29 755.021 815.03C752.321 818.29 748.541 820.11 745.101 822.31C743.401 823.4 742.101 824.89 740.351 825.9C735.551 828.67 730.841 831.6 726.211 834.63C722.151 837.28 718.241 840.17 714.241 842.92C710.611 845.42 707.001 847.96 703.281 850.32C701.571 851.4 700.301 853.16 698.511 853.91C694.121 855.76 691.091 859.73 686.561 861.29C686.311 861.37 686.071 861.61 685.931 861.84C684.171 864.84 680.811 865.77 678.201 867.63C676.361 868.94 674.231 869.91 672.531 871.44C669.771 873.93 666.591 875.84 663.491 877.8C660.731 879.54 658.111 881.46 655.381 883.24C654.191 884.02 653.021 884.77 651.701 885.36C648.981 886.58 646.291 887.96 644.011 889.93C641.931 891.72 639.571 893.02 637.161 894.25C636.271 894.7 635.281 895.02 634.511 895.63C630.911 898.47 626.761 900.39 622.801 902.6C616.841 905.93 610.671 908.89 604.611 912.04C601.071 913.88 597.551 915.76 594.151 917.88C589.701 920.66 584.841 922.73 580.351 925.46C576.701 927.68 572.991 929.79 569.291 931.94C567.701 932.87 566.111 933.82 564.481 934.67C561.331 936.31 558.141 937.89 554.971 939.5C551.171 941.43 547.321 943.26 543.601 945.34C539.621 947.57 535.251 948.99 531.481 951.68C528.951 953.49 526.171 955.13 523.251 956.17C519.561 957.48 516.271 959.39 512.951 961.35C511.121 962.43 509.181 963.35 507.261 964.26C501.841 966.83 496.301 969.19 490.991 971.97C485.311 974.94 479.301 977.26 473.771 980.53C471.211 982.04 468.391 983.11 465.761 984.52C456.871 989.32 448.021 994.18 439.151 999.03C438.651 999.3 438.121 999.85 437.671 999.79C435.101 999.46 433.341 1001.2 431.521 1002.37C427.801 1004.78 423.911 1006.86 419.941 1008.76C415.721 1010.78 411.521 1012.81 407.491 1015.19C405.911 1016.13 404.191 1016.85 402.491 1017.56C400.521 1018.39 398.601 1019.26 396.811 1020.46C394.451 1022.04 392.091 1023.77 389.481 1024.81C385.621 1026.35 382.301 1028.81 378.531 1030.48C375.541 1031.8 372.851 1033.82 369.871 1035.16C360.621 1039.32 351.761 1044.23 342.721 1048.79C337.771 1051.29 332.971 1054.1 327.961 1056.45C323.581 1058.5 319.101 1060.32 315.161 1063.2C314.821 1063.45 314.391 1063.57 314.011 1063.77C311.251 1065.21 308.531 1066.73 305.721 1068.08C299.671 1071 294.431 1075.32 288.291 1078.08C287.811 1078.3 287.431 1078.81 287.081 1079.25C286.951 1079.42 287.061 1079.78 287.061 1080.05C299.381 1080.05 311.691 1080.05 324.011 1080.05C323.541 1079.46 323.751 1078.99 324.361 1078.75C330.471 1076.36 336.151 1073.06 342.171 1070.44C359.471 1062.91 376.261 1054.3 393.181 1045.95C403.431 1040.89 413.561 1035.6 423.761 1030.45C433.841 1025.37 443.981 1020.42 454.031 1015.3C464.731 1009.85 475.321 1004.2 486.031 998.77C494.311 994.57 502.721 990.62 511.021 986.46C519.711 982.11 528.361 977.67 537.001 973.22C544.501 969.36 551.981 965.49 559.431 961.54C565.851 958.14 572.181 954.54 578.621 951.17C585.081 947.79 591.651 944.63 598.141 941.3C605.641 937.45 613.111 933.54 620.581 929.64C630.461 924.49 640.441 919.51 650.191 914.11C659.061 909.19 667.811 904.06 676.281 898.43C681.381 895.04 686.671 891.95 691.731 888.46C698.901 883.52 706.281 878.87 713.581 874.11C724.111 867.23 734.691 860.43 745.181 853.48C753.511 847.96 761.671 842.18 770.031 836.7C777.101 832.06 783.711 826.82 790.391 821.68C799.551 814.63 808.561 807.38 817.481 800.01C825.641 793.26 833.631 786.35 840.791 778.53C847.971 770.69 853.181 761.79 855.321 751.24C857.801 738.99 854.761 728.6 845.131 720.38C843.831 719.27 842.391 718.32 840.991 717.32C839.701 716.4 838.651 715.34 837.821 713.91C836.381 711.44 834.471 709.41 831.941 707.86C829.411 706.31 826.651 705.01 824.641 702.66C824.231 702.18 823.361 702.08 822.711 701.81C817.191 699.53 811.561 697.56 805.731 696.24C803.231 695.67 801.071 694.03 798.391 694.07C797.441 694.08 796.291 694.21 796.041 692.82C795.821 691.59 796.801 691.08 797.511 690.41C797.721 690.22 797.981 690.08 798.201 689.9C805.111 684.35 812.041 678.85 818.211 672.43C822.101 668.38 825.621 664.1 828.601 659.36C831.501 654.75 833.671 649.89 834.911 644.5C836.191 638.93 835.051 634.07 832.261 629.37C831.901 628.77 831.331 628.28 831.011 627.67C828.291 622.44 824.431 618.4 819.011 615.95C817.811 615.41 816.821 614.6 816.021 613.56C815.551 612.96 815.381 612.3 815.591 611.55C815.121 611.5 814.941 611.27 815.161 610.82C813.441 610.53 813.491 608.9 812.861 607.78C811.691 607.54 811.481 606.67 811.451 605.67C810.581 605.22 809.671 604.8 809.571 603.64C808.131 604.32 808.131 604.32 808.061 602.23C807.441 602.28 807.141 601.92 806.971 601.39C804.181 601.04 804.041 600.92 803.521 598.79C798.381 596.26 793.161 593.99 787.311 593.72C787.031 593.71 786.731 593.67 786.471 593.58C784.341 592.83 782.251 591.92 779.891 592.83C779.431 593.01 778.751 592.78 778.221 592.6C774.521 591.34 770.571 592.11 766.841 591.14C764.591 591.87 762.331 591.12 760.071 591.19C759.641 591.2 759.221 591.23 758.791 591.24C755.091 591.39 751.381 591.55 747.681 591.67C747.121 591.69 746.551 591.53 746.351 590.87C746.151 590.21 746.561 589.78 747.001 589.43C747.781 588.81 748.591 588.23 749.411 587.66C751.291 586.35 753.211 585.11 755.071 583.76C763.641 577.55 772.111 571.2 780.761 565.12C788.941 559.37 797.191 553.7 805.621 548.33C815.031 542.34 824.131 535.92 833.341 529.64C839.241 525.62 845.041 521.46 850.961 517.48C860.571 511.01 870.241 504.65 879.871 498.22C883.321 495.92 886.671 493.45 890.191 491.27C893.811 489.04 897.111 486.36 900.811 484.22C906.121 481.15 911.081 477.48 916.131 473.98C923.061 469.18 930.011 464.42 936.781 459.4C939.421 457.45 942.171 455.63 944.731 453.58C950.081 449.3 955.321 444.89 960.681 440.63C971.101 432.35 981.091 423.56 990.801 414.46C1004.81 401.34 1017.69 387.13 1030.57 372.91C1036.89 365.93 1041.84 358.18 1044.96 349.25C1046.67 344.37 1047.9 339.38 1048.71 334.31C1049.36 330.21 1049.23 326.05 1047.93 322C1045.35 313.97 1040.85 307.42 1033.54 302.96C1031.83 301.92 1030.18 300.77 1028.96 299.12C1027.69 297.39 1026.52 295.58 1025.11 293.98C1022.1 290.56 1019.17 287.01 1015.02 284.84C1008.31 281.33 1001.13 279.77 993.591 279.59C989.381 279.49 985.401 280.74 981.321 281.41C980.201 281.59 978.991 281.71 978.011 282.22C975.061 283.78 971.791 284.22 968.681 285.18C965.861 286.06 962.861 286.4 960.331 288.12C959.881 288.42 959.221 288.73 958.751 288.62C956.911 288.23 955.431 289.26 953.791 289.65C952.131 290.04 950.541 291.17 948.851 290.86C946.741 290.47 945.411 292.01 943.681 292.5C941.781 293.04 939.931 293.81 937.981 294.28C937.011 294.51 935.981 294.72 935.141 295.22C932.781 296.62 930.231 297.51 927.631 298.32C926.551 298.66 925.351 299.06 924.571 299.81C922.841 301.49 920.581 302.03 918.511 302.9C916.681 303.67 914.751 304.14 913.141 305.42C912.621 305.83 911.831 305.93 911.141 306.08C909.521 306.42 909.001 306.07 908.781 304.54C908.581 303.12 908.561 301.71 908.671 300.27C909.101 294.97 908.701 289.73 907.541 284.51C906.501 279.85 904.751 275.48 902.251 271.49C900.071 268.02 897.431 264.83 894.971 261.53C894.631 261.08 894.161 260.72 893.741 260.34C890.051 256.94 885.601 255.04 880.781 254.06C874.741 252.84 868.601 252.68 862.461 252.91C855.871 253.16 849.421 254.37 843.001 255.84C828.151 259.23 813.931 264.39 800.251 270.96C789.331 276.21 778.581 281.82 767.701 287.16C758.601 291.63 749.821 296.76 740.881 301.56C730.681 307.03 720.461 312.43 710.251 317.88C707.101 319.56 704.071 321.51 700.821 322.95C691.411 327.12 682.421 332.13 673.481 337.16C664.291 342.33 655.421 348.1 646.611 353.9C630.011 364.82 613.501 375.87 596.751 386.56C590.721 390.41 584.851 394.5 578.891 398.44C572.461 402.69 565.981 406.86 559.561 411.13C554.681 414.37 549.911 417.78 545.011 420.99C539.041 424.91 532.981 428.69 526.981 432.55C513.881 440.98 500.791 449.43 487.681 457.84C483.231 460.7 478.621 463.34 474.291 466.36C468.671 470.28 462.881 473.94 457.131 477.65C453.051 480.29 448.951 482.9 444.891 485.56C437.721 490.26 430.601 495.02 423.401 499.67C419.921 501.92 416.271 503.9 412.781 506.14C404.361 511.55 396.011 517.08 387.601 522.49C372.581 532.16 357.531 541.8 342.481 551.42C335.871 555.64 329.241 559.83 322.591 563.98C318.351 566.63 313.991 569.08 309.801 571.8C299.841 578.25 289.971 584.84 280.011 591.29C278.771 592.09 277.571 593.81 275.951 593.07C274.761 592.53 275.321 590.71 274.911 589.51C274.861 589.37 274.831 589.24 274.781 589.1C271.671 578.52 267.971 568.15 263.851 557.93C258.451 544.55 253.071 531.16 247.961 517.67C245.121 510.19 242.251 502.69 238.851 495.45C235.151 487.57 232.051 479.41 227.751 471.79C223.981 465.1 221.251 457.88 217.221 451.27C213.821 445.69 211.191 439.66 207.331 434.31C204.081 429.8 201.301 424.95 198.221 420.32C194.981 415.45 191.591 410.67 188.321 405.82C184.991 400.88 182.011 395.68 178.351 391.01C174.751 386.41 171.731 381.36 167.641 377.14C160.831 367.11 151.821 359.09 143.141 350.84C136.651 344.67 130.321 338.17 122.551 333.46C118.071 328.96 112.681 325.74 107.201 322.66C99.3809 318.27 91.1409 315.23 82.0009 315.27C78.7209 315.29 75.4509 315.54 72.1509 315.23C69.6109 314.99 67.0009 315.23 64.4509 315.51C60.0509 315.98 55.6609 316.57 51.2909 317.25C47.1809 317.89 43.1209 318.85 39.5509 321.08C35.2709 323.74 31.5809 327.12 28.3809 331.01C26.0009 333.9 23.9509 337.06 22.8709 340.65C21.4709 345.31 20.5509 350.1 20.0209 354.94C18.7509 366.66 20.3809 378.07 24.2209 389.14C26.4209 395.48 29.0309 401.68 31.5609 407.9C33.8709 413.58 36.3809 419.18 38.6909 424.86C41.3709 431.45 43.9609 438.08 46.5009 444.74C47.1109 446.33 48.1009 447.68 48.6209 449.37C49.8009 453.18 51.0109 457 52.2809 460.78C54.6009 467.66 57.0409 474.5 59.1909 481.44C61.3309 488.38 63.7309 495.25 65.7109 502.24C67.8909 509.92 69.7209 517.71 71.7309 525.44C72.1209 526.95 72.8009 528.41 73.0609 529.94C74.2109 536.83 75.7109 543.65 77.2509 550.47C77.6509 552.26 78.2909 554 78.8109 555.77C80.7809 562.48 81.6709 569.43 82.9509 576.28C83.6609 580.06 84.3909 583.85 85.0909 587.64C86.2809 594.1 87.3109 600.6 88.4109 607.08C89.1309 611.31 89.6409 615.59 90.6809 619.74C91.7109 623.87 91.2509 628.13 92.3109 632.28C93.1109 635.4 92.8509 638.81 93.0009 642.09C93.1409 645.23 93.2009 648.38 93.3209 651.52C93.5309 656.78 93.8409 662.03 93.9509 667.29C94.0609 672.57 93.9609 677.85 94.0209 683.13C94.0409 685.41 94.3509 687.7 94.3209 689.98C94.2509 694.68 94.8709 699.36 94.5509 704.08C94.0409 711.62 93.5809 719.17 92.8509 726.7C92.5609 729.68 92.4909 732.71 91.8609 735.62C90.2309 743.16 88.5609 750.7 86.4109 758.13C82.3809 772.03 77.4609 785.58 71.5009 798.77C66.7809 809.22 61.5609 819.39 55.0609 828.84C48.2309 838.76 40.4409 847.89 32.0709 856.55C25.4209 863.44 18.6509 870.2 11.5509 876.63C8.59086 879.31 5.51086 881.87 2.49086 884.48C1.80086 885.08 1.03086 885.38 0.130859 884.96C0.130859 901.29 0.130859 917.61 0.130859 933.94C0.280859 933.7 0.380859 933.34 0.600859 933.25C5.79086 931.06 9.93086 927.29 14.2709 923.89C17.7409 921.17 21.2709 918.53 24.6309 915.65C27.4309 913.25 30.6109 911.19 33.0809 908.49C38.3809 902.68 44.8609 898.13 50.0109 892.16C52.4909 889.29 55.2709 886.66 57.8209 883.84C59.7509 881.71 61.3009 879.32 63.1309 877.13C70.4109 868.43 76.1809 858.73 82.0009 849.05C85.3209 843.52 88.0709 837.7 91.0309 831.99C95.4409 823.49 99.5409 814.82 103.071 805.92C106.861 796.37 110.801 786.88 113.601 776.93C116.591 766.31 119.151 755.62 120.531 744.69C122.391 729.91 123.201 715.05 122.981 700.15C122.871 692.43 122.681 684.71 122.501 676.99C122.251 666.4 122.031 655.79 120.981 645.26C119.801 633.46 118.181 621.7 116.071 610.02C114.261 600.03 112.741 589.98 110.791 580.02C109.341 572.58 107.471 565.23 105.711 557.86C103.411 548.26 101.951 538.47 99.2309 528.97C96.5209 519.49 93.8609 510 91.1409 500.52C90.3909 497.91 89.6809 495.27 88.6709 492.76C87.7009 490.36 86.9009 487.93 86.3409 485.41C86.1509 484.58 85.8909 483.76 85.6109 482.95C83.7809 477.68 81.7609 472.47 80.1509 467.14C78.0809 460.29 75.4809 453.63 72.8009 447.04C70.6009 441.63 68.5509 436.14 66.0709 430.84C63.6609 425.69 61.9609 420.22 58.9909 415.3C57.0909 412.15 56.2209 408.47 54.6509 405.12C52.9609 401.53 52.0409 397.58 50.5809 393.88C48.3009 388.1 47.1609 382.05 46.4909 375.95C45.7609 369.38 46.5109 362.82 47.8309 356.34C48.1209 354.92 48.6209 353.67 49.3509 352.4C51.0309 349.52 53.4309 347.27 55.4909 344.72C57.0009 342.86 58.3909 341.24 61.1109 341.55C61.8709 341.64 62.7409 341.09 63.5209 340.74C64.7009 340.19 65.9309 340.19 67.1909 340.04C71.4709 339.53 75.7409 340.09 80.0009 339.8C82.7609 339.61 85.4009 340.32 87.9309 341.36C93.1009 343.48 97.9309 346.17 102.431 349.51C107.001 352.9 111.701 356.12 116.481 359.2C118.441 360.46 119.811 362.32 121.731 363.56C125.731 366.13 129.041 369.5 132.491 372.7C138.161 377.96 143.451 383.59 148.461 389.49C155.311 397.56 161.931 405.81 168.001 414.47C172.341 420.67 176.431 427.04 180.591 433.36C181.841 435.26 183.061 437.2 184.151 439.2C186.341 443.21 188.481 447.26 190.571 451.33C193.441 456.92 196.391 462.47 198.801 468.3C201.371 474.5 204.221 480.58 206.911 486.73C209.211 492.32 211.911 497.87 213.971 503.64ZM758.661 615.03C759.661 615.03 760.681 615.14 761.661 615.01C765.801 614.48 769.931 615.01 774.041 615.27C777.871 615.52 781.791 615.84 785.461 616.88C789.951 618.16 794.561 619.14 798.861 621.02C801.881 622.34 804.631 624.19 807.121 626.32C808.911 627.85 809.741 630.02 809.551 632.49C809.251 636.47 807.641 639.94 805.391 643.14C803.911 645.24 802.191 647.18 800.781 649.33C799.581 651.16 797.531 652.03 796.291 653.88C794.481 656.58 791.971 658.76 789.781 661.16C787.961 663.16 786.111 665.54 783.101 666.27C782.211 666.48 781.471 667.38 780.681 667.99C778.211 669.9 775.671 671.74 773.311 673.78C771.761 675.12 769.811 675.7 768.191 676.87C765.091 679.12 761.891 681.25 758.901 683.65C757.421 684.84 755.691 685.46 754.121 686.41C750.341 688.7 746.651 691.19 742.661 693.04C740.341 694.11 738.351 695.69 736.011 696.68C733.781 697.63 731.531 698.57 729.371 699.66C724.561 702.09 719.831 704.71 714.991 707.07C711.531 708.76 708.331 710.83 705.081 712.88C703.051 714.16 700.711 714.96 698.511 715.97C694.371 717.86 690.251 719.79 686.081 721.62C683.101 722.93 679.921 723.83 677.081 725.38C673.701 727.23 669.691 727.59 666.601 730.03C661.561 731.49 657.301 734.91 652.011 735.82C650.541 736.07 649.491 737.74 647.741 737.5C645.611 739.44 642.771 739.54 640.231 740.44C637.841 741.28 635.491 742.24 633.401 743.72C632.951 744.04 632.391 744.23 631.851 744.38C625.811 746.06 620.021 748.43 614.151 750.6C609.081 752.47 603.781 753.72 598.691 755.52C595.641 756.6 592.291 757.09 589.701 759.24C588.651 760.11 587.231 759.5 586.231 760.5C585.301 761.43 584.081 761.65 582.691 761.63C581.811 761.62 580.931 762.45 580.021 762.85C577.081 764.14 573.771 764.49 571.081 766.41C568.461 766.44 566.211 767.7 563.861 768.59C556.651 771.31 549.111 772.78 541.631 774.45C541.071 774.57 540.491 774.66 539.981 774.89C536.941 776.28 533.751 776.89 530.431 777.02C529.461 777.06 528.501 777.5 527.561 777.84C525.401 778.6 523.181 779.07 520.901 779.26C519.771 779.35 518.571 779.33 517.521 779.67C510.481 781.99 503.191 781.72 495.961 781.67C490.261 781.63 484.561 781.02 478.881 780.54C477.041 780.38 475.211 779.92 473.421 779.42C470.681 778.65 468.721 776.87 467.261 774.43C463.291 767.77 462.541 760.81 464.951 753.45C468.491 742.63 474.051 733.17 482.851 725.72C489.521 720.07 496.501 714.84 503.681 709.88C514.621 702.31 526.021 695.46 537.581 688.88C544.531 684.92 551.431 680.86 558.491 677.12C564.301 674.05 570.361 671.46 576.231 668.5C583.831 664.67 592.131 662.95 600.111 660.27C606.611 658.09 613.091 655.82 619.501 653.4C630.461 649.25 641.311 644.83 652.291 640.73C663.651 636.48 675.101 632.49 686.631 628.72C692.461 626.81 698.201 624.61 704.091 622.86C714.271 619.84 724.701 618 735.211 616.61C742.981 615.58 750.791 614.89 758.661 615.03Z" fill="#131211"/>
<path d="M303.711 796.58C302.311 803.73 300.511 810.79 298.901 817.9C298.111 821.38 297.241 824.85 296.631 828.36C296.021 831.84 295.321 835.28 293.961 838.55C293.801 838.94 293.831 839.4 293.731 839.81C292.981 842.83 292.311 845.87 291.431 848.86C289.131 856.67 286.851 864.49 284.321 872.23C283.571 874.52 283.121 876.88 282.241 879.12C280.261 884.17 278.321 889.23 276.361 894.29C274.451 899.21 272.841 904.28 270.541 909.01C267.091 916.09 264.301 923.43 261.501 930.77C257.991 939.98 254.771 949.3 251.401 958.56C250.711 960.45 250.121 962.36 249.951 964.37C249.821 965.96 250.311 966.92 251.981 967.05C253.531 967.17 254.331 967.95 255.001 969.05C256.121 970.88 257.271 972.67 258.791 974.23C259.491 974.94 260.101 975.12 261.041 974.76C263.741 973.73 265.551 971.72 266.881 969.3C268.581 966.21 270.121 963.03 271.651 959.85C273.071 956.9 274.201 953.79 275.791 950.94C278.091 946.82 279.801 942.43 281.791 938.18C285.351 930.55 288.621 922.77 292.011 915.06C292.871 913.1 293.741 911.14 294.571 909.17C297.591 902.06 299.861 894.68 302.461 887.42C302.941 886.08 303.611 884.8 304.031 883.44C306.031 876.89 308.001 870.33 309.931 863.75C311.621 857.99 313.301 852.24 314.871 846.45C315.911 842.59 316.551 838.61 317.721 834.79C319.731 828.2 320.811 821.41 321.981 814.67C323.061 808.5 324.391 802.37 325.131 796.11C325.981 788.87 326.991 781.62 327.211 774.35C327.551 763.34 327.301 752.32 327.301 741.3C327.291 741.3 327.291 741.3 327.281 741.3C327.281 740.3 327.331 739.29 327.271 738.3C326.871 731.3 326.431 724.31 326.551 717.29C326.611 714 326.621 710.7 326.431 707.42C326.231 703.86 325.851 700.31 323.181 697.49C322.521 696.79 322.031 695.81 321.771 694.87C321.381 693.44 320.391 693.22 319.181 693.12C316.641 692.92 314.141 693.28 311.631 693.61C309.341 693.91 308.431 694.86 308.371 697.21C308.171 704.75 308.211 712.3 307.541 719.83C307.491 720.39 307.591 720.97 307.591 721.54C307.661 729.11 307.951 736.68 307.451 744.25C307.161 748.64 306.781 753.05 306.801 757.44C306.851 765.57 306.861 773.68 305.721 781.76C305.041 786.69 304.671 791.69 303.711 796.58Z" fill="#131211"/>
</g>
<defs>
<clipPath id="clip0_35_28">
<rect width="1080" height="1080" fill="white"/>
</clipPath>
</defs>
</svg>
